<svg xmlns="http://www.w3.org/2000/svg" viewBox="0 0 561 96" role="img" font-family="Georgia, serif" font-size="13" fill="#1a1a1a"><rect width="561" height="96" fill="#fbfaf6"/><line x1="0" y1="0" x2="0" y2="96" stroke="#cfc8b8" stroke-width="1"/><line x1="60" y1="0" x2="60" y2="96" stroke="#cfc8b8" stroke-width="1"/><line x1="380" y1="0" x2="380" y2="96" stroke="#cfc8b8" stroke-width="1"/><line x1="441" y1="0" x2="441" y2="96" stroke="#cfc8b8" stroke-width="1"/><line x1="501" y1="0" x2="501" y2="96" stroke="#cfc8b8" stroke-width="1"/><line x1="561" y1="0" x2="561" y2="96" stroke="#cfc8b8" stroke-width="1"/><rect x="0" y="0" width="561" height="48" fill="#f0eadd"/><line x1="0" y1="0" x2="561" y2="0" stroke="#cfc8b8" stroke-width="1"/><text x="12" y="20" font-weight="600"></text><text x="72" y="20" font-weight="600">The headThe threshold entringThe upper</text><text x="72" y="36" font-weight="600">threshold</text><text x="392" y="20" font-weight="600">Earth</text><text x="453" y="20" font-weight="600"></text><text x="513" y="20" font-weight="600"></text><line x1="0" y1="48" x2="561" y2="48" stroke="#cfc8b8" stroke-width="1"/><text x="12" y="68"></text><text x="72" y="68">The TaileThe threshold going outThe</text><text x="72" y="84">lower threshold</text><text x="392" y="68">Fire</text><text x="453" y="68"></text><text x="513" y="68"></text><line x1="0" y1="96" x2="561" y2="96" stroke="#cfc8b8" stroke-width="1"/></svg>