<svg xmlns="http://www.w3.org/2000/svg" viewBox="0 0 205 256" role="img" font-family="Georgia, serif" font-size="13" fill="#1a1a1a"><rect width="205" height="256" fill="#fbfaf6"/><line x1="0" y1="0" x2="0" y2="256" stroke="#cfc8b8" stroke-width="1"/><line x1="76" y1="0" x2="76" y2="256" stroke="#cfc8b8" stroke-width="1"/><line x1="205" y1="0" x2="205" y2="256" stroke="#cfc8b8" stroke-width="1"/><rect x="0" y="0" width="205" height="32" fill="#f0eadd"/><line x1="0" y1="0" x2="205" y2="0" stroke="#cfc8b8" stroke-width="1"/><text x="12" y="20" font-weight="600">Planet</text><text x="88" y="20" font-weight="600">Sidereal Cycle</text><line x1="0" y1="32" x2="205" y2="32" stroke="#cfc8b8" stroke-width="1"/><text x="12" y="52">Moon</text><text x="88" y="52">29.5 days</text><line x1="0" y1="64" x2="205" y2="64" stroke="#cfc8b8" stroke-width="1"/><text x="12" y="84">Mercury</text><text x="88" y="84">88 days</text><line x1="0" y1="96" x2="205" y2="96" stroke="#cfc8b8" stroke-width="1"/><text x="12" y="116">Venus</text><text x="88" y="116">224.7 days</text><line x1="0" y1="128" x2="205" y2="128" stroke="#cfc8b8" stroke-width="1"/><text x="12" y="148">Sun</text><text x="88" y="148">365.25 days</text><line x1="0" y1="160" x2="205" y2="160" stroke="#cfc8b8" stroke-width="1"/><text x="12" y="180">Mars</text><text x="88" y="180">687.1 days</text><line x1="0" y1="192" x2="205" y2="192" stroke="#cfc8b8" stroke-width="1"/><text x="12" y="212">Jupiter</text><text x="88" y="212">12 years</text><line x1="0" y1="224" x2="205" y2="224" stroke="#cfc8b8" stroke-width="1"/><text x="12" y="244">Saturn</text><text x="88" y="244">29.5 years</text><line x1="0" y1="256" x2="205" y2="256" stroke="#cfc8b8" stroke-width="1"/></svg>