<svg xmlns="http://www.w3.org/2000/svg" viewBox="0 0 1843 400" role="img" font-family="Georgia, serif" font-size="13" fill="#1a1a1a"><rect width="1843" height="400" fill="#fbfaf6"/><line x1="0" y1="0" x2="0" y2="400" stroke="#cfc8b8" stroke-width="1"/><line x1="76" y1="0" x2="76" y2="400" stroke="#cfc8b8" stroke-width="1"/><line x1="205" y1="0" x2="205" y2="400" stroke="#cfc8b8" stroke-width="1"/><line x1="304" y1="0" x2="304" y2="400" stroke="#cfc8b8" stroke-width="1"/><line x1="440" y1="0" x2="440" y2="400" stroke="#cfc8b8" stroke-width="1"/><line x1="516" y1="0" x2="516" y2="400" stroke="#cfc8b8" stroke-width="1"/><line x1="675" y1="0" x2="675" y2="400" stroke="#cfc8b8" stroke-width="1"/><line x1="774" y1="0" x2="774" y2="400" stroke="#cfc8b8" stroke-width="1"/><line x1="910" y1="0" x2="910" y2="400" stroke="#cfc8b8" stroke-width="1"/><line x1="1001" y1="0" x2="1001" y2="400" stroke="#cfc8b8" stroke-width="1"/><line x1="1100" y1="0" x2="1100" y2="400" stroke="#cfc8b8" stroke-width="1"/><line x1="1221" y1="0" x2="1221" y2="400" stroke="#cfc8b8" stroke-width="1"/><line x1="1327" y1="0" x2="1327" y2="400" stroke="#cfc8b8" stroke-width="1"/><line x1="1418" y1="0" x2="1418" y2="400" stroke="#cfc8b8" stroke-width="1"/><line x1="1509" y1="0" x2="1509" y2="400" stroke="#cfc8b8" stroke-width="1"/><line x1="1593" y1="0" x2="1593" y2="400" stroke="#cfc8b8" stroke-width="1"/><line x1="1662" y1="0" x2="1662" y2="400" stroke="#cfc8b8" stroke-width="1"/><line x1="1783" y1="0" x2="1783" y2="400" stroke="#cfc8b8" stroke-width="1"/><line x1="1843" y1="0" x2="1843" y2="400" stroke="#cfc8b8" stroke-width="1"/><rect x="0" y="0" width="1843" height="32" fill="#f0eadd"/><line x1="0" y1="0" x2="1843" y2="0" stroke="#cfc8b8" stroke-width="1"/><text x="12" y="20" font-weight="600">Polaris</text><text x="88" y="20" font-weight="600">Camelopardalis</text><text x="217" y="20" font-weight="600">Ursa Minor</text><text x="316" y="20" font-weight="600">Great Rift</text><text x="452" y="20" font-weight="600">Cepheus</text><text x="528" y="20" font-weight="600">Cassiopeia</text><text x="687" y="20" font-weight="600"></text><text x="786" y="20" font-weight="600"></text><text x="922" y="20" font-weight="600"></text><text x="1013" y="20" font-weight="600"></text><text x="1112" y="20" font-weight="600"></text><text x="1233" y="20" font-weight="600"></text><text x="1339" y="20" font-weight="600"></text><text x="1430" y="20" font-weight="600"></text><text x="1521" y="20" font-weight="600"></text><text x="1605" y="20" font-weight="600"></text><text x="1674" y="20" font-weight="600"></text><text x="1795" y="20" font-weight="600"></text><line x1="0" y1="32" x2="1843" y2="32" stroke="#cfc8b8" stroke-width="1"/><text x="12" y="52">.</text><text x="88" y="52">Auriga</text><text x="217" y="52">Pleiades</text><text x="316" y="52">Ursa Major</text><text x="452" y="52">.</text><text x="528" y="52">Draco (The Dragon)</text><text x="687" y="52">Hercules</text><text x="786" y="52"></text><text x="922" y="52">Draco</text><text x="1013" y="52">Andromeda</text><text x="1112" y="52"></text><text x="1233" y="52"></text><text x="1339" y="52"></text><text x="1430" y="52"></text><text x="1521" y="52"></text><text x="1605" y="52"></text><text x="1674" y="52"></text><text x="1795" y="52"></text><line x1="0" y1="64" x2="1843" y2="64" stroke="#cfc8b8" stroke-width="1"/><text x="12" y="84"></text><text x="88" y="84">Perseus</text><text x="217" y="84">Orion</text><text x="316" y="84">Lupus</text><text x="452" y="84">Lynx</text><text x="528" y="84">Boötes</text><text x="687" y="84"></text><text x="786" y="84">Serpens</text><text x="922" y="84">Ophiuchus</text><text x="1013" y="84">Serpens</text><text x="1112" y="84">Aquila</text><text x="1233" y="84">Cygnus</text><text x="1339" y="84">Pegasus</text><text x="1430" y="84">Cetus</text><text x="1521" y="84"></text><text x="1605" y="84"></text><text x="1674" y="84"></text><text x="1795" y="84"></text><line x1="0" y1="96" x2="1843" y2="96" stroke="#cfc8b8" stroke-width="1"/><text x="12" y="116"></text><text x="88" y="116">Aries</text><text x="217" y="116">Taurus</text><text x="316" y="116">Gemini</text><text x="452" y="116">.</text><text x="528" y="116">Cancer</text><text x="687" y="116">Leo</text><text x="786" y="116">Virgo</text><text x="922" y="116"></text><text x="1013" y="116">Libra</text><text x="1112" y="116">Scorpio</text><text x="1233" y="116">Sagittarius</text><text x="1339" y="116">.</text><text x="1430" y="116">Capricorn</text><text x="1521" y="116">Aquarius</text><text x="1605" y="116">Pisces</text><text x="1674" y="116"></text><text x="1795" y="116"></text><line x1="0" y1="128" x2="1843" y2="128" stroke="#cfc8b8" stroke-width="1"/><text x="12" y="148"></text><text x="88" y="148"></text><text x="217" y="148">Ram</text><text x="316" y="148">Bull</text><text x="452" y="148">Twins</text><text x="528" y="148"></text><text x="687" y="148">Crab</text><text x="786" y="148">Lion</text><text x="922" y="148">Virgin</text><text x="1013" y="148"></text><text x="1112" y="148">Scales</text><text x="1233" y="148">Scorpion</text><text x="1339" y="148">Archer</text><text x="1430" y="148"></text><text x="1521" y="148"></text><text x="1605" y="148">Goat</text><text x="1674" y="148">Water</text><text x="1674" y="164">Carrier</text><text x="1795" y="148">Fish</text><line x1="0" y1="176" x2="1843" y2="176" stroke="#cfc8b8" stroke-width="1"/><text x="12" y="196"></text><text x="88" y="196">Sacrifice</text><text x="217" y="196">King</text><text x="316" y="196">Spirit</text><text x="452" y="196"></text><text x="528" y="196">Wicked</text><text x="687" y="196">-</text><text x="786" y="196">Church</text><text x="922" y="196"></text><text x="1013" y="196">Judgment</text><text x="1112" y="196">Second</text><text x="1112" y="212">Coming</text><text x="1233" y="196"></text><text x="1339" y="196">Scapegoat</text><text x="1430" y="196">Army</text><text x="1521" y="196">-</text><text x="1605" y="196"></text><text x="1674" y="196"></text><text x="1795" y="196"></text><line x1="0" y1="224" x2="1843" y2="224" stroke="#cfc8b8" stroke-width="1"/><text x="12" y="244"></text><text x="88" y="244">Eridanus</text><text x="217" y="244">Argo</text><text x="316" y="244"></text><text x="452" y="244">Hydra</text><text x="528" y="244"></text><text x="687" y="244">Lupus</text><text x="786" y="244">-</text><text x="922" y="244">-</text><text x="1013" y="244"></text><text x="1112" y="244">-</text><text x="1233" y="244">-</text><text x="1339" y="244">Cetus</text><text x="1430" y="244"></text><text x="1521" y="244"></text><text x="1605" y="244"></text><text x="1674" y="244"></text><text x="1795" y="244"></text><line x1="0" y1="256" x2="1843" y2="256" stroke="#cfc8b8" stroke-width="1"/><text x="12" y="276"></text><text x="88" y="276">Passover</text><text x="217" y="276">Shavuot</text><text x="316" y="276"></text><text x="452" y="276">Drought</text><text x="528" y="276"></text><text x="687" y="276">Yom Kippur</text><text x="786" y="276">Tabernacles</text><text x="922" y="276"></text><text x="1013" y="276">Millennium</text><text x="1112" y="276"></text><text x="1233" y="276"></text><text x="1339" y="276"></text><text x="1430" y="276"></text><text x="1521" y="276"></text><text x="1605" y="276"></text><text x="1674" y="276"></text><text x="1795" y="276"></text><line x1="0" y1="288" x2="1843" y2="288" stroke="#cfc8b8" stroke-width="1"/><text x="12" y="308"></text><text x="88" y="308">Planting</text><text x="217" y="308"></text><text x="316" y="308">Growing</text><text x="452" y="308"></text><text x="528" y="308">Harvest</text><text x="687" y="308"></text><text x="786" y="308">Rest</text><text x="922" y="308"></text><text x="1013" y="308"></text><text x="1112" y="308"></text><text x="1233" y="308"></text><text x="1339" y="308"></text><text x="1430" y="308"></text><text x="1521" y="308"></text><text x="1605" y="308"></text><text x="1674" y="308"></text><text x="1795" y="308"></text><line x1="0" y1="320" x2="1843" y2="320" stroke="#cfc8b8" stroke-width="1"/><text x="12" y="340"></text><text x="88" y="340">Spring</text><text x="217" y="340"></text><text x="316" y="340">Summer</text><text x="452" y="340"></text><text x="528" y="340">Autumn</text><text x="687" y="340"></text><text x="786" y="340">Winter</text><text x="922" y="340"></text><text x="1013" y="340"></text><text x="1112" y="340"></text><text x="1233" y="340"></text><text x="1339" y="340"></text><text x="1430" y="340"></text><text x="1521" y="340"></text><text x="1605" y="340"></text><text x="1674" y="340"></text><text x="1795" y="340"></text><line x1="0" y1="352" x2="1843" y2="352" stroke="#cfc8b8" stroke-width="1"/><text x="12" y="372"></text><text x="88" y="372">Vernal Equinox</text><text x="217" y="372"></text><text x="316" y="372">Summer</text><text x="316" y="388">Solstice</text><text x="452" y="372"></text><text x="528" y="372">Autumnal Equinox</text><text x="687" y="372"></text><text x="786" y="372">Winter</text><text x="786" y="388">Solstice</text><text x="922" y="372"></text><text x="1013" y="372"></text><text x="1112" y="372"></text><text x="1233" y="372"></text><text x="1339" y="372"></text><text x="1430" y="372"></text><text x="1521" y="372"></text><text x="1605" y="372"></text><text x="1674" y="372"></text><text x="1795" y="372"></text><line x1="0" y1="400" x2="1843" y2="400" stroke="#cfc8b8" stroke-width="1"/></svg>