<svg xmlns="http://www.w3.org/2000/svg" viewBox="0 0 319 288" role="img" font-family="Georgia, serif" font-size="13" fill="#1a1a1a"><rect width="319" height="288" fill="#fbfaf6"/><line x1="0" y1="0" x2="0" y2="288" stroke="#cfc8b8" stroke-width="1"/><line x1="61" y1="0" x2="61" y2="288" stroke="#cfc8b8" stroke-width="1"/><line x1="190" y1="0" x2="190" y2="288" stroke="#cfc8b8" stroke-width="1"/><line x1="319" y1="0" x2="319" y2="288" stroke="#cfc8b8" stroke-width="1"/><rect x="0" y="0" width="319" height="32" fill="#f0eadd"/><line x1="0" y1="0" x2="319" y2="0" stroke="#cfc8b8" stroke-width="1"/><text x="12" y="20" font-weight="600">Vowel</text><text x="73" y="20" font-weight="600">(Saturn-Alpha)</text><text x="202" y="20" font-weight="600">(Moon – Alpha)</text><line x1="0" y1="32" x2="319" y2="32" stroke="#cfc8b8" stroke-width="1"/><text x="12" y="52">A , α</text><text x="73" y="52">Saturn</text><text x="202" y="52">Moon</text><line x1="0" y1="64" x2="319" y2="64" stroke="#cfc8b8" stroke-width="1"/><text x="12" y="84">E , ε</text><text x="73" y="84">Jupiter</text><text x="202" y="84">Mercury</text><line x1="0" y1="96" x2="319" y2="96" stroke="#cfc8b8" stroke-width="1"/><text x="12" y="116">H , η</text><text x="73" y="116">Mars</text><text x="202" y="116">Venus</text><line x1="0" y1="128" x2="319" y2="128" stroke="#cfc8b8" stroke-width="1"/><text x="12" y="148">I , ι</text><text x="73" y="148">Sun</text><text x="202" y="148">Sun</text><line x1="0" y1="160" x2="319" y2="160" stroke="#cfc8b8" stroke-width="1"/><text x="12" y="180">O , ο</text><text x="73" y="180">Venus</text><text x="202" y="180">Mars</text><line x1="0" y1="192" x2="319" y2="192" stroke="#cfc8b8" stroke-width="1"/><text x="12" y="212">Υ , υ</text><text x="73" y="212">Mercury</text><text x="202" y="212">Jupiter</text><line x1="0" y1="224" x2="319" y2="224" stroke="#cfc8b8" stroke-width="1"/><text x="12" y="244">Ω , ω</text><text x="73" y="244">Moon</text><text x="202" y="244">Saturn</text><line x1="0" y1="256" x2="319" y2="256" stroke="#cfc8b8" stroke-width="1"/><text x="12" y="276"></text><text x="73" y="276"></text><text x="202" y="276"></text><line x1="0" y1="288" x2="319" y2="288" stroke="#cfc8b8" stroke-width="1"/></svg>