<svg xmlns="http://www.w3.org/2000/svg" viewBox="0 0 320 512" role="img" font-family="Georgia, serif" font-size="13" fill="#1a1a1a"><rect width="320" height="512" fill="#fbfaf6"/><line x1="0" y1="0" x2="0" y2="512" stroke="#cfc8b8" stroke-width="1"/><line x1="320" y1="0" x2="320" y2="512" stroke="#cfc8b8" stroke-width="1"/><rect x="0" y="0" width="320" height="512" fill="#f0eadd"/><line x1="0" y1="0" x2="320" y2="0" stroke="#cfc8b8" stroke-width="1"/><text x="12" y="20" font-weight="600">Slavic sources also speak of 7 Rivers</text><text x="12" y="36" font-weight="600">(Semirechje). In India, a convergence</text><text x="12" y="52" font-weight="600">of 7 rivers becomes the Sapta Sindu (or</text><text x="12" y="68" font-weight="600">Hepta Hindu) linked with the 7 wise men</text><text x="12" y="84" font-weight="600">who make up the 7 stars of Ursa maior:</text><text x="12" y="100" font-weight="600">The Saptagodavara is usually understood</text><text x="12" y="116" font-weight="600">as the Godavari Delta, which opens</text><text x="12" y="132" font-weight="600">beyond Rajamundry into the Bay of</text><text x="12" y="148" font-weight="600">Bengal, where the Godavari has seven</text><text x="12" y="164" font-weight="600">Gaumukhas, and the seven mouths of</text><text x="12" y="180" font-weight="600">Godavari are known as: Kasyapa, Atri,</text><text x="12" y="196" font-weight="600">Gautama, Bharadvaja, Visvamitra,</text><text x="12" y="212" font-weight="600">Jamadagni, and Vasistha. The same seven</text><text x="12" y="228" font-weight="600">streams, however, first appear in the</text><text x="12" y="244" font-weight="600">headwaters of the Godavari, and five of</text><text x="12" y="260" font-weight="600">them span the region known as</text><text x="12" y="276" font-weight="600">Pancavati. The first (in the south)</text><text x="12" y="292" font-weight="600">springs from Kalsubai and Kulang; and</text><text x="12" y="308" font-weight="600">the seventh (in the north) rises at the</text><text x="12" y="324" font-weight="600">foot of Saptasringi (north of Vani) and</text><text x="12" y="340" font-weight="600">nearby Goraknath. These Sapta Go-Dvara</text><text x="12" y="356" font-weight="600">(or Seven Doors of Light) are the Sapta</text><text x="12" y="372" font-weight="600">Rksa, the Sapta Rsi, and the Sapta</text><text x="12" y="388" font-weight="600">Sringi; seven spiritual summits watched</text><text x="12" y="404" font-weight="600">by the original Go-Raksas, whose Amrta</text><text x="12" y="420" font-weight="600">flow sustains and illuminates the whole</text><text x="12" y="436" font-weight="600">of Bharatavarsa; seven divine</text><text x="12" y="452" font-weight="600">emanations in earthly reflexion of the</text><text x="12" y="468" font-weight="600">constellation Ursa major, spanning</text><text x="12" y="484" font-weight="600">seven Yojanas across the heart of the</text><text x="12" y="500" font-weight="600">Dandakaranya.</text><line x1="0" y1="512" x2="320" y2="512" stroke="#cfc8b8" stroke-width="1"/></svg>