<svg xmlns="http://www.w3.org/2000/svg" viewBox="0 0 1210 288" role="img" font-family="Georgia, serif" font-size="13" fill="#1a1a1a"><rect width="1210" height="288" fill="#fbfaf6"/><line x1="0" y1="0" x2="0" y2="288" stroke="#cfc8b8" stroke-width="1"/><line x1="249" y1="0" x2="249" y2="288" stroke="#cfc8b8" stroke-width="1"/><line x1="385" y1="0" x2="385" y2="288" stroke="#cfc8b8" stroke-width="1"/><line x1="536" y1="0" x2="536" y2="288" stroke="#cfc8b8" stroke-width="1"/><line x1="687" y1="0" x2="687" y2="288" stroke="#cfc8b8" stroke-width="1"/><line x1="846" y1="0" x2="846" y2="288" stroke="#cfc8b8" stroke-width="1"/><line x1="967" y1="0" x2="967" y2="288" stroke="#cfc8b8" stroke-width="1"/><line x1="1036" y1="0" x2="1036" y2="288" stroke="#cfc8b8" stroke-width="1"/><line x1="1150" y1="0" x2="1150" y2="288" stroke="#cfc8b8" stroke-width="1"/><line x1="1210" y1="0" x2="1210" y2="288" stroke="#cfc8b8" stroke-width="1"/><rect x="0" y="0" width="1210" height="32" fill="#f0eadd"/><line x1="0" y1="0" x2="1210" y2="0" stroke="#cfc8b8" stroke-width="1"/><text x="12" y="20" font-weight="600"></text><text x="261" y="20" font-weight="600"></text><text x="397" y="20" font-weight="600"></text><text x="548" y="20" font-weight="600"></text><text x="699" y="20" font-weight="600"></text><text x="858" y="20" font-weight="600"></text><text x="979" y="20" font-weight="600"></text><text x="1048" y="20" font-weight="600"></text><text x="1162" y="20" font-weight="600"></text><line x1="0" y1="32" x2="1210" y2="32" stroke="#cfc8b8" stroke-width="1"/><text x="12" y="52"></text><text x="261" y="52">Tajam(bersuara)</text><text x="397" y="52">Lembut(nirsuara)</text><text x="548" y="52">Anunasika(sengau)</text><text x="699" y="52"></text><text x="858" y="52"></text><text x="979" y="52"></text><text x="1048" y="52"></text><text x="1162" y="52"></text><line x1="0" y1="64" x2="1210" y2="64" stroke="#cfc8b8" stroke-width="1"/><text x="12" y="84"></text><text x="261" y="84">Alpaprana</text><text x="397" y="84">Mahaprana</text><text x="548" y="84">Alpaprana</text><text x="699" y="84">Mahaprana</text><text x="858" y="84"></text><text x="979" y="84"></text><text x="1048" y="84"></text><text x="1162" y="84"></text><line x1="0" y1="96" x2="1210" y2="96" stroke="#cfc8b8" stroke-width="1"/><text x="12" y="116">Kanthya(tenggorokan)</text><text x="261" y="116">(Ka)Ka</text><text x="397" y="116">(Kha)Ka</text><text x="397" y="132">mahaprana</text><text x="548" y="116">(Ga)Ga</text><text x="699" y="116">(Gha)Ga gora</text><text x="858" y="116">(Nga)Nga</text><text x="979" y="116"></text><text x="1048" y="116">(Ha)Ha</text><text x="1162" y="116"></text><line x1="0" y1="144" x2="1210" y2="144" stroke="#cfc8b8" stroke-width="1"/><text x="12" y="164">Talawya(langit-langit lembut)</text><text x="261" y="164">(Ca)Ca</text><text x="397" y="164">(Cha)Ca laca</text><text x="548" y="164">(Ja)Ja</text><text x="699" y="164">(Jha)Ja jera</text><text x="858" y="164">(Nya)Nya</text><text x="979" y="164">(Ya)Ya</text><text x="1048" y="164">(Śa)Sa saga</text><text x="1162" y="164"></text><line x1="0" y1="176" x2="1210" y2="176" stroke="#cfc8b8" stroke-width="1"/><text x="12" y="196">Murdhanya(langit-langit keras)</text><text x="261" y="196">(Ṭa)Ta latik</text><text x="397" y="196">(Ṭha)Ta latik[4]</text><text x="548" y="196">(Ḍa)Da madu</text><text x="548" y="212">m.[5]</text><text x="699" y="196">(Ḍha)Da madu m.[6]</text><text x="858" y="196">(Ṇa)Na</text><text x="858" y="212">rambat</text><text x="979" y="196">(Ra)Ra</text><text x="1048" y="196">(Ṣa)Sa sapa</text><text x="1162" y="196"></text><line x1="0" y1="224" x2="1210" y2="224" stroke="#cfc8b8" stroke-width="1"/><text x="12" y="244">Dantya(gigi)</text><text x="261" y="244">(Ta)Ta</text><text x="397" y="244">(Tha)Ta tawa</text><text x="548" y="244">(Da)Da</text><text x="699" y="244">(Dha)Da madu</text><text x="858" y="244">(Na)Na</text><text x="979" y="244">(La)La</text><text x="1048" y="244">(Sa)Sa danti</text><text x="1162" y="244"></text><line x1="0" y1="256" x2="1210" y2="256" stroke="#cfc8b8" stroke-width="1"/><text x="12" y="276">Osthya(bibir)</text><text x="261" y="276">(Ba)Ba</text><text x="397" y="276">(Bha)Ba kembang</text><text x="548" y="276">(Pa)Pa</text><text x="699" y="276">(Pha)Pa kapal</text><text x="858" y="276">(Ma)Ma</text><text x="979" y="276">(Wa)Wa</text><text x="1048" y="276"></text><text x="1162" y="276"></text><line x1="0" y1="288" x2="1210" y2="288" stroke="#cfc8b8" stroke-width="1"/></svg>