<svg xmlns="http://www.w3.org/2000/svg" viewBox="0 0 381 64" role="img" font-family="Georgia, serif" font-size="13" fill="#1a1a1a"><rect width="381" height="64" fill="#fbfaf6"/><line x1="0" y1="0" x2="0" y2="64" stroke="#cfc8b8" stroke-width="1"/><line x1="69" y1="0" x2="69" y2="64" stroke="#cfc8b8" stroke-width="1"/><line x1="138" y1="0" x2="138" y2="64" stroke="#cfc8b8" stroke-width="1"/><line x1="229" y1="0" x2="229" y2="64" stroke="#cfc8b8" stroke-width="1"/><line x1="305" y1="0" x2="305" y2="64" stroke="#cfc8b8" stroke-width="1"/><line x1="381" y1="0" x2="381" y2="64" stroke="#cfc8b8" stroke-width="1"/><rect x="0" y="0" width="381" height="32" fill="#f0eadd"/><line x1="0" y1="0" x2="381" y2="0" stroke="#cfc8b8" stroke-width="1"/><text x="12" y="20" font-weight="600">Osthya</text><text x="81" y="20" font-weight="600">Dantya</text><text x="150" y="20" font-weight="600">Murdhanya</text><text x="241" y="20" font-weight="600">Talawya</text><text x="317" y="20" font-weight="600">Kanthya</text><line x1="0" y1="32" x2="381" y2="32" stroke="#cfc8b8" stroke-width="1"/><text x="12" y="52"></text><text x="81" y="52"></text><text x="150" y="52"></text><text x="241" y="52"></text><text x="317" y="52"></text><line x1="0" y1="64" x2="381" y2="64" stroke="#cfc8b8" stroke-width="1"/></svg>