<svg xmlns="http://www.w3.org/2000/svg" viewBox="0 0 1241 288" role="img" font-family="Georgia, serif" font-size="13" fill="#1a1a1a"><rect width="1241" height="288" fill="#fbfaf6"/><line x1="0" y1="0" x2="0" y2="288" stroke="#cfc8b8" stroke-width="1"/><line x1="234" y1="0" x2="234" y2="288" stroke="#cfc8b8" stroke-width="1"/><line x1="363" y1="0" x2="363" y2="288" stroke="#cfc8b8" stroke-width="1"/><line x1="552" y1="0" x2="552" y2="288" stroke="#cfc8b8" stroke-width="1"/><line x1="696" y1="0" x2="696" y2="288" stroke="#cfc8b8" stroke-width="1"/><line x1="870" y1="0" x2="870" y2="288" stroke="#cfc8b8" stroke-width="1"/><line x1="991" y1="0" x2="991" y2="288" stroke="#cfc8b8" stroke-width="1"/><line x1="1060" y1="0" x2="1060" y2="288" stroke="#cfc8b8" stroke-width="1"/><line x1="1181" y1="0" x2="1181" y2="288" stroke="#cfc8b8" stroke-width="1"/><line x1="1241" y1="0" x2="1241" y2="288" stroke="#cfc8b8" stroke-width="1"/><rect x="0" y="0" width="1241" height="32" fill="#f0eadd"/><line x1="0" y1="0" x2="1241" y2="0" stroke="#cfc8b8" stroke-width="1"/><text x="12" y="20" font-weight="600">Aksara wianjana (Consonants)</text><text x="246" y="20" font-weight="600"></text><text x="375" y="20" font-weight="600"></text><text x="564" y="20" font-weight="600"></text><text x="708" y="20" font-weight="600"></text><text x="882" y="20" font-weight="600"></text><text x="1003" y="20" font-weight="600"></text><text x="1072" y="20" font-weight="600"></text><text x="1193" y="20" font-weight="600"></text><line x1="0" y1="32" x2="1241" y2="32" stroke="#cfc8b8" stroke-width="1"/><text x="12" y="52">Warga(Place of articulation)</text><text x="246" y="52">Pancawalimukha</text><text x="375" y="52">Ardhasuara(Semivowels)</text><text x="564" y="52">Usma(Fricatives)</text><text x="708" y="52">Wisarga</text><text x="882" y="52"></text><text x="1003" y="52"></text><text x="1072" y="52"></text><text x="1193" y="52"></text><line x1="0" y1="64" x2="1241" y2="64" stroke="#cfc8b8" stroke-width="1"/><text x="12" y="84"></text><text x="246" y="84">Unvoiced</text><text x="375" y="84">Voiced</text><text x="564" y="84">Nasal</text><text x="708" y="84"></text><text x="882" y="84"></text><text x="1003" y="84"></text><text x="1072" y="84"></text><text x="1193" y="84"></text><line x1="0" y1="96" x2="1241" y2="96" stroke="#cfc8b8" stroke-width="1"/><text x="12" y="116">Kanthya(Guttural)</text><text x="246" y="116">(Ka)Ka</text><text x="375" y="116">, (Kha)Ka mahaprana4</text><text x="564" y="116">(Ga)Ga</text><text x="708" y="116">(Gha)Ga gora</text><text x="882" y="116">(Nga)Nga</text><text x="1003" y="116"></text><text x="1072" y="116">(Ha)Ha1</text><text x="1193" y="116"></text><line x1="0" y1="128" x2="1241" y2="128" stroke="#cfc8b8" stroke-width="1"/><text x="12" y="148">TalawyaPalatal)</text><text x="246" y="148">(Ca)Ca murca</text><text x="375" y="148">(Cha)Ca laca2</text><text x="564" y="148">(Ja)Ja</text><text x="708" y="148">(Jha)Ja jera3</text><text x="882" y="148">(Nya)Nya</text><text x="1003" y="148">(Ya)Ya</text><text x="1072" y="148">(Śa)Sa saga</text><text x="1193" y="148"></text><line x1="0" y1="160" x2="1241" y2="160" stroke="#cfc8b8" stroke-width="1"/><text x="12" y="180">Murdhanya(Retroflex)</text><text x="246" y="180">(Ṭa)Ta latik</text><text x="375" y="180">(Ṭha)Ta latik4</text><text x="564" y="180">(Ḍa)Da madu m.5</text><text x="708" y="180">(Ḍha)Da madu m.4 5 6</text><text x="882" y="180">(Ṇa)Na</text><text x="882" y="196">rambat</text><text x="1003" y="180">(Ra)Ra</text><text x="1072" y="180">(Ṣa)Sa sapa</text><text x="1193" y="180"></text><line x1="0" y1="208" x2="1241" y2="208" stroke="#cfc8b8" stroke-width="1"/><text x="12" y="228">Dantya(Dental)</text><text x="246" y="228">(Ta)Ta</text><text x="375" y="228">(Tha)Ta tawa</text><text x="564" y="228">(Da)Da lindung</text><text x="708" y="228">(Dha)Da madu</text><text x="882" y="228">(Na)Na</text><text x="882" y="244">kojong</text><text x="1003" y="228">(La)La</text><text x="1072" y="228">(Sa)Sa</text><text x="1072" y="244">danti7</text><text x="1193" y="228"></text><line x1="0" y1="256" x2="1241" y2="256" stroke="#cfc8b8" stroke-width="1"/><text x="12" y="276">Osthya(Labial)</text><text x="246" y="276">(Pa)Pa</text><text x="375" y="276">(Pha)Pa kapal</text><text x="564" y="276">(Ba)Ba</text><text x="708" y="276">, (Bha)Ba kembang8</text><text x="882" y="276">(Ma)Ma</text><text x="1003" y="276">(Wa)Wa</text><text x="1072" y="276"></text><text x="1193" y="276"></text><line x1="0" y1="288" x2="1241" y2="288" stroke="#cfc8b8" stroke-width="1"/></svg>