<svg xmlns="http://www.w3.org/2000/svg" viewBox="0 0 320 336" role="img" font-family="Georgia, serif" font-size="13" fill="#1a1a1a"><rect width="320" height="336" fill="#fbfaf6"/><line x1="0" y1="0" x2="0" y2="336" stroke="#cfc8b8" stroke-width="1"/><line x1="320" y1="0" x2="320" y2="336" stroke="#cfc8b8" stroke-width="1"/><rect x="0" y="0" width="320" height="160" fill="#f0eadd"/><line x1="0" y1="0" x2="320" y2="0" stroke="#cfc8b8" stroke-width="1"/><text x="12" y="20" font-weight="600">Northern Brahmic Kusan Tocharian Meitei</text><text x="12" y="36" font-weight="600">Mayek Gupta Śāradā Landa Old Kashmiri</text><text x="12" y="52" font-weight="600">Gurmukhī Khojki Khudawadi Takri Dogri</text><text x="12" y="68" font-weight="600">Chameali Siddhaṃ Tibetan ’Phagspa</text><text x="12" y="84" font-weight="600">Hangul (partial) Lepcha Limbu Nāgarī</text><text x="12" y="100" font-weight="600">Devanāgarī Modi Nandināgarī Gujarati</text><text x="12" y="116" font-weight="600">Kaithi Eastern Nagari Assamese Bengali</text><text x="12" y="132" font-weight="600">Anga Tirhuta Nepal Bhujimol Prachalit</text><text x="12" y="148" font-weight="600">Nepal Ranjana Soyombo</text><line x1="0" y1="160" x2="320" y2="160" stroke="#cfc8b8" stroke-width="1"/><text x="12" y="180">Southern Brahmic Tamil Brahmi</text><text x="12" y="196">Vatteluttu Kolezhuthu Tamil Pallava</text><text x="12" y="212">Grantha Malayalam Tulu Sinhala Dhives</text><text x="12" y="228">Akuru Saurashtra Khmer Lao Thai Cham</text><text x="12" y="244">Old Kawi Balinese Javanese Baybayin</text><text x="12" y="260">Batak Buhid Hanunó'o Tagbanwa Sundanese</text><text x="12" y="276">Lontara Rejang Mon Burmese Ojhopath</text><text x="12" y="292">Tanchangya Kalinga Oriya Bhattiprolu</text><text x="12" y="308">Script Kadamba Kannada Telugu Tai Le</text><text x="12" y="324">New Tai Lue Ahom</text><line x1="0" y1="336" x2="320" y2="336" stroke="#cfc8b8" stroke-width="1"/></svg>