<svg xmlns="http://www.w3.org/2000/svg" viewBox="0 0 581 624" role="img" font-family="Georgia, serif" font-size="13" fill="#1a1a1a"><rect width="581" height="624" fill="#fbfaf6"/><line x1="0" y1="0" x2="0" y2="624" stroke="#cfc8b8" stroke-width="1"/><line x1="219" y1="0" x2="219" y2="624" stroke="#cfc8b8" stroke-width="1"/><line x1="279" y1="0" x2="279" y2="624" stroke="#cfc8b8" stroke-width="1"/><line x1="385" y1="0" x2="385" y2="624" stroke="#cfc8b8" stroke-width="1"/><line x1="581" y1="0" x2="581" y2="624" stroke="#cfc8b8" stroke-width="1"/><rect x="0" y="0" width="581" height="32" fill="#f0eadd"/><line x1="0" y1="0" x2="581" y2="0" stroke="#cfc8b8" stroke-width="1"/><text x="12" y="20" font-weight="600">December 24 - January 21</text><text x="231" y="20" font-weight="600">B</text><text x="291" y="20" font-weight="600">Besan</text><text x="397" y="20" font-weight="600">Pheasant</text><line x1="0" y1="32" x2="581" y2="32" stroke="#cfc8b8" stroke-width="1"/><text x="12" y="52">January 22 - February 18</text><text x="231" y="52">L</text><text x="291" y="52">Lachu</text><text x="397" y="52">Duck</text><line x1="0" y1="64" x2="581" y2="64" stroke="#cfc8b8" stroke-width="1"/><text x="12" y="84">February 19 - March 18</text><text x="231" y="84">N</text><text x="291" y="84">Naescu</text><text x="397" y="84">Snipe</text><line x1="0" y1="96" x2="581" y2="96" stroke="#cfc8b8" stroke-width="1"/><text x="12" y="116">March 19 - April 14</text><text x="231" y="116">F</text><text x="291" y="116">Faelinn</text><text x="397" y="116">Gull</text><line x1="0" y1="128" x2="581" y2="128" stroke="#cfc8b8" stroke-width="1"/><text x="12" y="148">April 15 - May 13</text><text x="231" y="148">S</text><text x="291" y="148">Seg</text><text x="397" y="148">Hawk/SS strolach</text><text x="397" y="164">thrush</text><line x1="0" y1="176" x2="581" y2="176" stroke="#cfc8b8" stroke-width="1"/><text x="12" y="196">May 14-June 10</text><text x="231" y="196">H</text><text x="291" y="196">Hadaig</text><text x="397" y="196">Night-crow</text><line x1="0" y1="208" x2="581" y2="208" stroke="#cfc8b8" stroke-width="1"/><text x="12" y="228">June 11 - July 8</text><text x="231" y="228">D</text><text x="291" y="228">Droen</text><text x="397" y="228">Wren</text><line x1="0" y1="240" x2="581" y2="240" stroke="#cfc8b8" stroke-width="1"/><text x="12" y="260">July 9 - August 5</text><text x="231" y="260">T</text><text x="291" y="260">Truith</text><text x="397" y="260">Starling</text><line x1="0" y1="272" x2="581" y2="272" stroke="#cfc8b8" stroke-width="1"/><text x="12" y="292">August 5 - September 5</text><text x="231" y="292">C</text><text x="291" y="292">Cron</text><text x="397" y="292">Crane/Q querc hen</text><line x1="0" y1="304" x2="581" y2="304" stroke="#cfc8b8" stroke-width="1"/><text x="12" y="324">September 6 - September 30</text><text x="231" y="324">M</text><text x="291" y="324">Mintan</text><text x="397" y="324">Tit-mouse</text><line x1="0" y1="336" x2="581" y2="336" stroke="#cfc8b8" stroke-width="1"/><text x="12" y="356">October 1 - October 29</text><text x="231" y="356">G</text><text x="291" y="356">Geis</text><text x="397" y="356">Mute-swan</text><line x1="0" y1="368" x2="581" y2="368" stroke="#cfc8b8" stroke-width="1"/><text x="12" y="388">October 30 - November 25</text><text x="231" y="388">Ng</text><text x="291" y="388">Ngeigh</text><text x="397" y="388">Goose</text><line x1="0" y1="400" x2="581" y2="400" stroke="#cfc8b8" stroke-width="1"/><text x="12" y="420">November 26 - December 22</text><text x="231" y="420">R</text><text x="291" y="420">Rocnat</text><text x="397" y="420">Rook</text><line x1="0" y1="432" x2="581" y2="432" stroke="#cfc8b8" stroke-width="1"/><text x="12" y="452"></text><text x="231" y="452"></text><text x="291" y="452"></text><text x="397" y="452"></text><line x1="0" y1="464" x2="581" y2="464" stroke="#cfc8b8" stroke-width="1"/><text x="12" y="484">Winter Solstice</text><text x="231" y="484">A</text><text x="291" y="484">Aidhircleog</text><text x="397" y="484">Lapwing</text><line x1="0" y1="496" x2="581" y2="496" stroke="#cfc8b8" stroke-width="1"/><text x="12" y="516">Spring Equinox</text><text x="231" y="516">O</text><text x="291" y="516">Odorscrach</text><text x="397" y="516">Cormorant</text><line x1="0" y1="528" x2="581" y2="528" stroke="#cfc8b8" stroke-width="1"/><text x="12" y="548">Summer Solstice</text><text x="231" y="548">U</text><text x="291" y="548">Uiseog</text><text x="397" y="548">Lark</text><line x1="0" y1="560" x2="581" y2="560" stroke="#cfc8b8" stroke-width="1"/><text x="12" y="580">Autumn Equinox</text><text x="231" y="580">E</text><text x="291" y="580">Ela</text><text x="397" y="580">Whistling swan</text><line x1="0" y1="592" x2="581" y2="592" stroke="#cfc8b8" stroke-width="1"/><text x="12" y="612">Winter Solstice</text><text x="231" y="612">I</text><text x="291" y="612">Illait</text><text x="397" y="612">Eagle</text><line x1="0" y1="624" x2="581" y2="624" stroke="#cfc8b8" stroke-width="1"/></svg>