<svg xmlns="http://www.w3.org/2000/svg" viewBox="0 0 480 96" role="img" font-family="Georgia, serif" font-size="13" fill="#1a1a1a"><rect width="480" height="96" fill="#fbfaf6"/><line x1="0" y1="0" x2="0" y2="96" stroke="#cfc8b8" stroke-width="1"/><line x1="60" y1="0" x2="60" y2="96" stroke="#cfc8b8" stroke-width="1"/><line x1="120" y1="0" x2="120" y2="96" stroke="#cfc8b8" stroke-width="1"/><line x1="180" y1="0" x2="180" y2="96" stroke="#cfc8b8" stroke-width="1"/><line x1="240" y1="0" x2="240" y2="96" stroke="#cfc8b8" stroke-width="1"/><line x1="300" y1="0" x2="300" y2="96" stroke="#cfc8b8" stroke-width="1"/><line x1="360" y1="0" x2="360" y2="96" stroke="#cfc8b8" stroke-width="1"/><line x1="420" y1="0" x2="420" y2="96" stroke="#cfc8b8" stroke-width="1"/><line x1="480" y1="0" x2="480" y2="96" stroke="#cfc8b8" stroke-width="1"/><rect x="0" y="0" width="480" height="32" fill="#f0eadd"/><line x1="0" y1="0" x2="480" y2="0" stroke="#cfc8b8" stroke-width="1"/><text x="12" y="20" font-weight="600">f</text><text x="72" y="20" font-weight="600">u</text><text x="132" y="20" font-weight="600">þ</text><text x="192" y="20" font-weight="600">a</text><text x="252" y="20" font-weight="600">r</text><text x="312" y="20" font-weight="600">k</text><text x="372" y="20" font-weight="600">g</text><text x="432" y="20" font-weight="600">w</text><line x1="0" y1="32" x2="480" y2="32" stroke="#cfc8b8" stroke-width="1"/><text x="12" y="52">h</text><text x="72" y="52">n</text><text x="132" y="52">i</text><text x="192" y="52">j</text><text x="252" y="52">ï</text><text x="312" y="52">p</text><text x="372" y="52">z</text><text x="432" y="52">s</text><line x1="0" y1="64" x2="480" y2="64" stroke="#cfc8b8" stroke-width="1"/><text x="12" y="84">t</text><text x="72" y="84">b</text><text x="132" y="84">e</text><text x="192" y="84">m</text><text x="252" y="84">l</text><text x="312" y="84">ŋ</text><text x="372" y="84">d</text><text x="432" y="84">o</text><line x1="0" y1="96" x2="480" y2="96" stroke="#cfc8b8" stroke-width="1"/></svg>