<svg xmlns="http://www.w3.org/2000/svg" viewBox="0 0 360 736" role="img" font-family="Georgia, serif" font-size="13" fill="#1a1a1a"><rect width="360" height="736" fill="#fbfaf6"/><line x1="0" y1="0" x2="0" y2="736" stroke="#cfc8b8" stroke-width="1"/><line x1="60" y1="0" x2="60" y2="736" stroke="#cfc8b8" stroke-width="1"/><line x1="120" y1="0" x2="120" y2="736" stroke="#cfc8b8" stroke-width="1"/><line x1="180" y1="0" x2="180" y2="736" stroke="#cfc8b8" stroke-width="1"/><line x1="240" y1="0" x2="240" y2="736" stroke="#cfc8b8" stroke-width="1"/><line x1="300" y1="0" x2="300" y2="736" stroke="#cfc8b8" stroke-width="1"/><line x1="360" y1="0" x2="360" y2="736" stroke="#cfc8b8" stroke-width="1"/><rect x="0" y="0" width="360" height="32" fill="#f0eadd"/><line x1="0" y1="0" x2="360" y2="0" stroke="#cfc8b8" stroke-width="1"/><text x="12" y="20" font-weight="600"></text><text x="72" y="20" font-weight="600">A</text><text x="132" y="20" font-weight="600"></text><text x="192" y="20" font-weight="600">I</text><text x="252" y="20" font-weight="600"></text><text x="312" y="20" font-weight="600">U</text><line x1="0" y1="32" x2="360" y2="32" stroke="#cfc8b8" stroke-width="1"/><text x="12" y="52"></text><text x="72" y="52">KA</text><text x="132" y="52"></text><text x="192" y="52"></text><text x="252" y="52"></text><text x="312" y="52">KU</text><line x1="0" y1="64" x2="360" y2="64" stroke="#cfc8b8" stroke-width="1"/><text x="12" y="84"></text><text x="72" y="84">XA</text><text x="132" y="84"></text><text x="192" y="84"></text><text x="252" y="84"></text><text x="312" y="84"></text><line x1="0" y1="96" x2="360" y2="96" stroke="#cfc8b8" stroke-width="1"/><text x="12" y="116"></text><text x="72" y="116">GA</text><text x="132" y="116"></text><text x="192" y="116"></text><text x="252" y="116"></text><text x="312" y="116">GU</text><line x1="0" y1="128" x2="360" y2="128" stroke="#cfc8b8" stroke-width="1"/><text x="12" y="148"></text><text x="72" y="148">CA</text><text x="132" y="148"></text><text x="192" y="148"></text><text x="252" y="148"></text><text x="312" y="148"></text><line x1="0" y1="160" x2="360" y2="160" stroke="#cfc8b8" stroke-width="1"/><text x="12" y="180"></text><text x="72" y="180">JA</text><text x="132" y="180"></text><text x="192" y="180">JI</text><text x="252" y="180"></text><text x="312" y="180"></text><line x1="0" y1="192" x2="360" y2="192" stroke="#cfc8b8" stroke-width="1"/><text x="12" y="212"></text><text x="72" y="212">TA</text><text x="132" y="212"></text><text x="192" y="212"></text><text x="252" y="212"></text><text x="312" y="212">TU</text><line x1="0" y1="224" x2="360" y2="224" stroke="#cfc8b8" stroke-width="1"/><text x="12" y="244"></text><text x="72" y="244">THA</text><text x="132" y="244"></text><text x="192" y="244"></text><text x="252" y="244"></text><text x="312" y="244"></text><line x1="0" y1="256" x2="360" y2="256" stroke="#cfc8b8" stroke-width="1"/><text x="12" y="276"></text><text x="72" y="276">ÇA</text><text x="132" y="276"></text><text x="192" y="276"></text><text x="252" y="276"></text><text x="312" y="276"></text><line x1="0" y1="288" x2="360" y2="288" stroke="#cfc8b8" stroke-width="1"/><text x="12" y="308"></text><text x="72" y="308">DA</text><text x="132" y="308"></text><text x="192" y="308">DI</text><text x="252" y="308"></text><text x="312" y="308">DU</text><line x1="0" y1="320" x2="360" y2="320" stroke="#cfc8b8" stroke-width="1"/><text x="12" y="340"></text><text x="72" y="340">NA</text><text x="132" y="340"></text><text x="192" y="340"></text><text x="252" y="340"></text><text x="312" y="340">NU</text><line x1="0" y1="352" x2="360" y2="352" stroke="#cfc8b8" stroke-width="1"/><text x="12" y="372"></text><text x="72" y="372">PA</text><text x="132" y="372"></text><text x="192" y="372"></text><text x="252" y="372"></text><text x="312" y="372"></text><line x1="0" y1="384" x2="360" y2="384" stroke="#cfc8b8" stroke-width="1"/><text x="12" y="404"></text><text x="72" y="404">FA</text><text x="132" y="404"></text><text x="192" y="404"></text><text x="252" y="404"></text><text x="312" y="404"></text><line x1="0" y1="416" x2="360" y2="416" stroke="#cfc8b8" stroke-width="1"/><text x="12" y="436"></text><text x="72" y="436">BA</text><text x="132" y="436"></text><text x="192" y="436"></text><text x="252" y="436"></text><text x="312" y="436"></text><line x1="0" y1="448" x2="360" y2="448" stroke="#cfc8b8" stroke-width="1"/><text x="12" y="468"></text><text x="72" y="468">MA</text><text x="132" y="468"></text><text x="192" y="468">MI</text><text x="252" y="468"></text><text x="312" y="468">MU</text><line x1="0" y1="480" x2="360" y2="480" stroke="#cfc8b8" stroke-width="1"/><text x="12" y="500"></text><text x="72" y="500">YA</text><text x="132" y="500"></text><text x="192" y="500"></text><text x="252" y="500"></text><text x="312" y="500"></text><line x1="0" y1="512" x2="360" y2="512" stroke="#cfc8b8" stroke-width="1"/><text x="12" y="532"></text><text x="72" y="532">RA</text><text x="132" y="532"></text><text x="192" y="532"></text><text x="252" y="532"></text><text x="312" y="532">RU</text><line x1="0" y1="544" x2="360" y2="544" stroke="#cfc8b8" stroke-width="1"/><text x="12" y="564"></text><text x="72" y="564">LA</text><text x="132" y="564"></text><text x="192" y="564"></text><text x="252" y="564"></text><text x="312" y="564"></text><line x1="0" y1="576" x2="360" y2="576" stroke="#cfc8b8" stroke-width="1"/><text x="12" y="596"></text><text x="72" y="596">VA</text><text x="132" y="596"></text><text x="192" y="596">VI</text><text x="252" y="596"></text><text x="312" y="596"></text><line x1="0" y1="608" x2="360" y2="608" stroke="#cfc8b8" stroke-width="1"/><text x="12" y="628"></text><text x="72" y="628">SA</text><text x="132" y="628"></text><text x="192" y="628"></text><text x="252" y="628"></text><text x="312" y="628"></text><line x1="0" y1="640" x2="360" y2="640" stroke="#cfc8b8" stroke-width="1"/><text x="12" y="660"></text><text x="72" y="660">ŠA</text><text x="132" y="660"></text><text x="192" y="660"></text><text x="252" y="660"></text><text x="312" y="660"></text><line x1="0" y1="672" x2="360" y2="672" stroke="#cfc8b8" stroke-width="1"/><text x="12" y="692"></text><text x="72" y="692">ZA</text><text x="132" y="692"></text><text x="192" y="692"></text><text x="252" y="692"></text><text x="312" y="692"></text><line x1="0" y1="704" x2="360" y2="704" stroke="#cfc8b8" stroke-width="1"/><text x="12" y="724"></text><text x="72" y="724">HA</text><text x="132" y="724"></text><text x="192" y="724"></text><text x="252" y="724"></text><text x="312" y="724"></text><line x1="0" y1="736" x2="360" y2="736" stroke="#cfc8b8" stroke-width="1"/></svg>