<svg xmlns="http://www.w3.org/2000/svg" viewBox="0 0 671 208" role="img" font-family="Georgia, serif" font-size="13" fill="#1a1a1a"><rect width="671" height="208" fill="#fbfaf6"/><line x1="0" y1="0" x2="0" y2="208" stroke="#cfc8b8" stroke-width="1"/><line x1="60" y1="0" x2="60" y2="208" stroke="#cfc8b8" stroke-width="1"/><line x1="211" y1="0" x2="211" y2="208" stroke="#cfc8b8" stroke-width="1"/><line x1="271" y1="0" x2="271" y2="208" stroke="#cfc8b8" stroke-width="1"/><line x1="422" y1="0" x2="422" y2="208" stroke="#cfc8b8" stroke-width="1"/><line x1="482" y1="0" x2="482" y2="208" stroke="#cfc8b8" stroke-width="1"/><line x1="671" y1="0" x2="671" y2="208" stroke="#cfc8b8" stroke-width="1"/><rect x="0" y="0" width="671" height="48" fill="#f0eadd"/><line x1="0" y1="0" x2="671" y2="0" stroke="#cfc8b8" stroke-width="1"/><text x="12" y="20" font-weight="600"></text><text x="72" y="20" font-weight="600">xšâyathiya</text><text x="72" y="36" font-weight="600">'king'</text><text x="223" y="20" font-weight="600"></text><text x="283" y="20" font-weight="600">dahyâuš</text><text x="283" y="36" font-weight="600">'country'</text><text x="434" y="20" font-weight="600"></text><text x="494" y="20" font-weight="600">dahyâuš 'country'</text><line x1="0" y1="48" x2="671" y2="48" stroke="#cfc8b8" stroke-width="1"/><text x="12" y="68"></text><text x="72" y="68">Ahura Mazda</text><text x="223" y="68"></text><text x="283" y="68">Ahura Mazda</text><text x="434" y="68"></text><text x="494" y="68">Ahura Mazda (genitive)</text><line x1="0" y1="80" x2="671" y2="80" stroke="#cfc8b8" stroke-width="1"/><text x="12" y="100"></text><text x="72" y="100">bûmiš 'earth'</text><text x="223" y="100"></text><text x="283" y="100">baga 'god'</text><text x="434" y="100"></text><text x="494" y="100"></text><line x1="0" y1="112" x2="671" y2="112" stroke="#cfc8b8" stroke-width="1"/><text x="12" y="132"></text><text x="72" y="132">one</text><text x="223" y="132"></text><text x="283" y="132">two</text><text x="434" y="132"></text><text x="494" y="132">three</text><line x1="0" y1="144" x2="671" y2="144" stroke="#cfc8b8" stroke-width="1"/><text x="12" y="164"></text><text x="72" y="164">ten</text><text x="223" y="164"></text><text x="283" y="164">twenty</text><text x="434" y="164"></text><text x="494" y="164">fourty</text><line x1="0" y1="176" x2="671" y2="176" stroke="#cfc8b8" stroke-width="1"/><text x="12" y="196"></text><text x="72" y="196">hundred</text><text x="223" y="196"></text><text x="283" y="196"></text><text x="434" y="196"></text><text x="494" y="196"></text><line x1="0" y1="208" x2="671" y2="208" stroke="#cfc8b8" stroke-width="1"/></svg>