<svg xmlns="http://www.w3.org/2000/svg" viewBox="0 0 978 352" role="img" font-family="Georgia, serif" font-size="13" fill="#1a1a1a"><rect width="978" height="352" fill="#fbfaf6"/><line x1="0" y1="0" x2="0" y2="352" stroke="#cfc8b8" stroke-width="1"/><line x1="76" y1="0" x2="76" y2="352" stroke="#cfc8b8" stroke-width="1"/><line x1="145" y1="0" x2="145" y2="352" stroke="#cfc8b8" stroke-width="1"/><line x1="205" y1="0" x2="205" y2="352" stroke="#cfc8b8" stroke-width="1"/><line x1="289" y1="0" x2="289" y2="352" stroke="#cfc8b8" stroke-width="1"/><line x1="349" y1="0" x2="349" y2="352" stroke="#cfc8b8" stroke-width="1"/><line x1="425" y1="0" x2="425" y2="352" stroke="#cfc8b8" stroke-width="1"/><line x1="485" y1="0" x2="485" y2="352" stroke="#cfc8b8" stroke-width="1"/><line x1="545" y1="0" x2="545" y2="352" stroke="#cfc8b8" stroke-width="1"/><line x1="629" y1="0" x2="629" y2="352" stroke="#cfc8b8" stroke-width="1"/><line x1="689" y1="0" x2="689" y2="352" stroke="#cfc8b8" stroke-width="1"/><line x1="765" y1="0" x2="765" y2="352" stroke="#cfc8b8" stroke-width="1"/><line x1="834" y1="0" x2="834" y2="352" stroke="#cfc8b8" stroke-width="1"/><line x1="894" y1="0" x2="894" y2="352" stroke="#cfc8b8" stroke-width="1"/><line x1="978" y1="0" x2="978" y2="352" stroke="#cfc8b8" stroke-width="1"/><rect x="0" y="0" width="978" height="32" fill="#f0eadd"/><line x1="0" y1="0" x2="978" y2="0" stroke="#cfc8b8" stroke-width="1"/><text x="12" y="20" font-weight="600">Zeichen</text><text x="88" y="20" font-weight="600">Wert</text><text x="157" y="20" font-weight="600">Name</text><text x="217" y="20" font-weight="600">Zahlwert</text><text x="301" y="20" font-weight="600"></text><text x="361" y="20" font-weight="600">Zeichen</text><text x="437" y="20" font-weight="600">Wert</text><text x="497" y="20" font-weight="600">Name</text><text x="557" y="20" font-weight="600">Zahlwert</text><text x="641" y="20" font-weight="600"></text><text x="701" y="20" font-weight="600">Zeichen</text><text x="777" y="20" font-weight="600">Wert</text><text x="846" y="20" font-weight="600">Name</text><text x="906" y="20" font-weight="600">Zahlwert</text><line x1="0" y1="32" x2="978" y2="32" stroke="#cfc8b8" stroke-width="1"/><text x="12" y="52"></text><text x="88" y="52">A</text><text x="157" y="52">Aa</text><text x="217" y="52">1</text><text x="301" y="52"></text><text x="361" y="52"></text><text x="437" y="52">h</text><text x="497" y="52">Hi</text><text x="557" y="52">20</text><text x="641" y="52"></text><text x="701" y="52"></text><text x="777" y="52">s</text><text x="846" y="52">Si</text><text x="906" y="52">300</text><line x1="0" y1="64" x2="978" y2="64" stroke="#cfc8b8" stroke-width="1"/><text x="12" y="84"></text><text x="88" y="84">B</text><text x="157" y="84">Bi</text><text x="217" y="84">2</text><text x="301" y="84"></text><text x="361" y="84"></text><text x="437" y="84">i</text><text x="497" y="84">Ii</text><text x="557" y="84">30</text><text x="641" y="84"></text><text x="701" y="84"></text><text x="777" y="84">š (sh)</text><text x="846" y="84">Shi</text><text x="906" y="84">400</text><line x1="0" y1="96" x2="978" y2="96" stroke="#cfc8b8" stroke-width="1"/><text x="12" y="116"></text><text x="88" y="116">θ (th)</text><text x="157" y="116">Thi</text><text x="217" y="116">3</text><text x="301" y="116"></text><text x="361" y="116"></text><text x="437" y="116">j</text><text x="497" y="116">Dji</text><text x="557" y="116">40</text><text x="641" y="116"></text><text x="701" y="116"></text><text x="777" y="116">t</text><text x="846" y="116">Ti</text><text x="906" y="116">500</text><line x1="0" y1="128" x2="978" y2="128" stroke="#cfc8b8" stroke-width="1"/><text x="12" y="148"></text><text x="88" y="148">č (ch)</text><text x="157" y="148">Chi</text><text x="217" y="148">4</text><text x="301" y="148"></text><text x="361" y="148"></text><text x="437" y="148">k</text><text x="497" y="148">Ki</text><text x="557" y="148">50</text><text x="641" y="148"></text><text x="701" y="148"></text><text x="777" y="148">u</text><text x="846" y="148">Ui</text><text x="906" y="148">600</text><line x1="0" y1="160" x2="978" y2="160" stroke="#cfc8b8" stroke-width="1"/><text x="12" y="180"></text><text x="88" y="180">d</text><text x="157" y="180">Di</text><text x="217" y="180">5</text><text x="301" y="180"></text><text x="361" y="180"></text><text x="437" y="180">l</text><text x="497" y="180">Li</text><text x="557" y="180">60</text><text x="641" y="180"></text><text x="701" y="180"></text><text x="777" y="180">v</text><text x="846" y="180">Vi</text><text x="906" y="180">700</text><line x1="0" y1="192" x2="978" y2="192" stroke="#cfc8b8" stroke-width="1"/><text x="12" y="212"></text><text x="88" y="212">ð (dh)</text><text x="157" y="212">Dhi</text><text x="217" y="212">6</text><text x="301" y="212"></text><text x="361" y="212"></text><text x="437" y="212">m</text><text x="497" y="212">Mi</text><text x="557" y="212">70</text><text x="641" y="212"></text><text x="701" y="212"></text><text x="777" y="212">w</text><text x="846" y="212">Wi</text><text x="906" y="212">800</text><line x1="0" y1="224" x2="978" y2="224" stroke="#cfc8b8" stroke-width="1"/><text x="12" y="244"></text><text x="88" y="244">e</text><text x="157" y="244">Ei</text><text x="217" y="244">7</text><text x="301" y="244"></text><text x="361" y="244"></text><text x="437" y="244">n</text><text x="497" y="244">Ni</text><text x="557" y="244">80</text><text x="641" y="244"></text><text x="701" y="244"></text><text x="777" y="244">y</text><text x="846" y="244">Yi</text><text x="906" y="244">900</text><line x1="0" y1="256" x2="978" y2="256" stroke="#cfc8b8" stroke-width="1"/><text x="12" y="276"></text><text x="88" y="276">f</text><text x="157" y="276">Fi</text><text x="217" y="276">8</text><text x="301" y="276"></text><text x="361" y="276"></text><text x="437" y="276">o</text><text x="497" y="276">Oi</text><text x="557" y="276">90</text><text x="641" y="276"></text><text x="701" y="276"></text><text x="777" y="276">z</text><text x="846" y="276">Zi</text><text x="906" y="276">1000</text><line x1="0" y1="288" x2="978" y2="288" stroke="#cfc8b8" stroke-width="1"/><text x="12" y="308"></text><text x="88" y="308">g</text><text x="157" y="308">Gi</text><text x="217" y="308">9</text><text x="301" y="308"></text><text x="361" y="308"></text><text x="437" y="308">p</text><text x="497" y="308">Pi</text><text x="557" y="308">100</text><text x="641" y="308"></text><text x="701" y="308"></text><text x="777" y="308"></text><text x="846" y="308"></text><text x="906" y="308"></text><line x1="0" y1="320" x2="978" y2="320" stroke="#cfc8b8" stroke-width="1"/><text x="12" y="340"></text><text x="88" y="340">ġ (gh)</text><text x="157" y="340">Ghi</text><text x="217" y="340">10</text><text x="301" y="340"></text><text x="361" y="340"></text><text x="437" y="340">r</text><text x="497" y="340">Ri</text><text x="557" y="340">200</text><text x="641" y="340"></text><text x="701" y="340"></text><text x="777" y="340"></text><text x="846" y="340"></text><text x="906" y="340"></text><line x1="0" y1="352" x2="978" y2="352" stroke="#cfc8b8" stroke-width="1"/></svg>