<svg xmlns="http://www.w3.org/2000/svg" viewBox="0 0 300 160" role="img" font-family="Georgia, serif" font-size="13" fill="#1a1a1a"><rect width="300" height="160" fill="#fbfaf6"/><line x1="0" y1="0" x2="0" y2="160" stroke="#cfc8b8" stroke-width="1"/><line x1="60" y1="0" x2="60" y2="160" stroke="#cfc8b8" stroke-width="1"/><line x1="120" y1="0" x2="120" y2="160" stroke="#cfc8b8" stroke-width="1"/><line x1="180" y1="0" x2="180" y2="160" stroke="#cfc8b8" stroke-width="1"/><line x1="240" y1="0" x2="240" y2="160" stroke="#cfc8b8" stroke-width="1"/><line x1="300" y1="0" x2="300" y2="160" stroke="#cfc8b8" stroke-width="1"/><rect x="0" y="0" width="300" height="32" fill="#f0eadd"/><line x1="0" y1="0" x2="300" y2="0" stroke="#cfc8b8" stroke-width="1"/><text x="12" y="20" font-weight="600">1 A</text><text x="72" y="20" font-weight="600">2 B</text><text x="132" y="20" font-weight="600">3 C</text><text x="192" y="20" font-weight="600">4 D</text><text x="252" y="20" font-weight="600">5 E</text><line x1="0" y1="32" x2="300" y2="32" stroke="#cfc8b8" stroke-width="1"/><text x="12" y="52">6 F</text><text x="72" y="52">7 G</text><text x="132" y="52">8 H</text><text x="192" y="52">9 I</text><text x="252" y="52">10 J</text><line x1="0" y1="64" x2="300" y2="64" stroke="#cfc8b8" stroke-width="1"/><text x="12" y="84">11 K</text><text x="72" y="84">12 L</text><text x="132" y="84">13 M</text><text x="192" y="84">14 N</text><text x="252" y="84">15 O</text><line x1="0" y1="96" x2="300" y2="96" stroke="#cfc8b8" stroke-width="1"/><text x="12" y="116">16 Q</text><text x="72" y="116">17 R</text><text x="132" y="116">18 S</text><text x="192" y="116">19 T</text><text x="252" y="116">20 U</text><line x1="0" y1="128" x2="300" y2="128" stroke="#cfc8b8" stroke-width="1"/><text x="12" y="148">21 V</text><text x="72" y="148">22 W</text><text x="132" y="148">23 X</text><text x="192" y="148">24 Y</text><text x="252" y="148">25 Z</text><line x1="0" y1="160" x2="300" y2="160" stroke="#cfc8b8" stroke-width="1"/></svg>